<svg viewBox="0 0 22 22" fill="none" xmlns="http://www.w3.org/2000/svg">
<path d="M5.6305 9.15218C4.66202 9.15218 3.86963 9.94457 3.86963 10.913C3.86963 11.8815 4.66202 12.6739 5.6305 12.6739C6.59898 12.6739 7.39137 11.8815 7.39137 10.913C7.39137 9.94457 6.59898 9.15218 5.6305 9.15218ZM16.1957 9.15218C15.2272 9.15218 14.4348 9.94457 14.4348 10.913C14.4348 11.8815 15.2272 12.6739 16.1957 12.6739C17.1642 12.6739 17.9566 11.8815 17.9566 10.913C17.9566 9.94457 17.1642 9.15218 16.1957 9.15218ZM10.9131 9.15218C9.94463 9.15218 9.15224 9.94457 9.15224 10.913C9.15224 11.8815 9.94463 12.6739 10.9131 12.6739C11.8816 12.6739 12.674 11.8815 12.674 10.913C12.674 9.94457 11.8816 9.15218 10.9131 9.15218Z" fill="currentColor"/>
</svg>
