<svg viewBox="0 0 27 20" fill="none" xmlns="http://www.w3.org/2000/svg">
<path d="M0 15.4493C0 14.7305 0 14.0116 0 13.2927C0.0152009 13.1845 0.0325931 13.0764 0.045192 12.9679C0.13852 12.1615 0.192749 11.3485 0.33031 10.5497C0.876857 7.37625 2.13195 4.48686 3.9084 1.81479C3.97016 1.72188 4.07027 1.63711 4.17181 1.59068C5.79605 0.847553 7.49279 0.335243 9.24746 0.00835625C9.38982 -0.018211 9.46952 0.0161626 9.53183 0.14626C9.69425 0.48513 9.88439 0.811879 10.0277 1.15828C10.1105 1.35849 10.214 1.38972 10.4126 1.36986C11.1692 1.29413 11.9286 1.183 12.6858 1.19053C13.7607 1.20135 14.8352 1.30036 15.9089 1.37445C16.0879 1.38677 16.18 1.35548 16.2545 1.17875C16.4003 0.833037 16.5831 0.503138 16.7437 0.163378C16.8074 0.0286931 16.8836 -0.0205389 17.043 0.00897268C18.7901 0.331614 20.4769 0.846595 22.0947 1.58192C22.2039 1.63156 22.3167 1.71941 22.3783 1.81993C22.8424 2.57751 23.3263 3.3257 23.7439 4.10875C25.0325 6.52384 25.8463 9.09245 26.1437 11.8185C26.1972 12.3095 26.2416 12.8014 26.2902 13.2927C26.2902 13.9945 26.2902 14.6962 26.2902 15.398C26.2568 15.7541 26.2355 16.112 26.1832 16.4653C26.1657 16.5832 26.0966 16.7273 26.004 16.7952C24.1981 18.119 22.2315 19.1361 20.1083 19.8492C19.5106 20.05 19.4983 20.0554 19.1548 19.5213C18.7866 18.9486 18.4432 18.36 18.0718 17.7499C18.489 17.5672 18.8589 17.4175 19.2176 17.2446C19.5801 17.0699 19.9315 16.8721 20.2979 16.679C19.9133 16.2232 19.8436 16.2079 19.3856 16.4023C15.2154 18.1726 11.0455 18.1496 6.87736 16.3952C6.44886 16.2148 6.30733 16.2518 5.97455 16.7005C6.70666 17.0546 7.4285 17.4038 8.20778 17.7808C7.76182 18.4855 7.3251 19.1674 6.89886 19.8557C6.80273 20.011 6.70604 20.0251 6.54027 19.9721C4.28253 19.2494 2.19324 18.1956 0.281764 16.7938C0.189394 16.7262 0.121744 16.5819 0.103667 16.464C0.0521074 16.1284 0.0323189 15.7879 0 15.4493ZM19.8815 10.9376C19.8738 10.8369 19.8738 10.6816 19.8472 10.531C19.8162 10.355 19.7747 10.1787 19.7161 10.0102C19.14 8.35561 17.2192 7.8229 15.9997 8.97666C14.8879 10.0285 14.8804 11.949 15.984 13.0115C16.8899 13.8834 18.2283 13.8675 19.1086 12.9682C19.6449 12.4203 19.8739 11.748 19.8815 10.9376ZM11.1869 10.9857C11.1196 10.6615 11.0855 10.3258 10.9795 10.0148C10.4251 8.38814 8.55658 7.83522 7.32497 8.92195C6.14382 9.96417 6.12259 11.9768 7.28142 13.0432C8.19566 13.8844 9.49431 13.8558 10.3677 12.9692C10.9058 12.4231 11.1339 11.7504 11.1869 10.9857Z" fill="currentColor"/>
</svg>
