<svg viewBox="0 0 22 22" fill="none" xmlns="http://www.w3.org/2000/svg">
<path d="M10.9908 1.83333C5.93075 1.83333 1.83325 5.93999 1.83325 11C1.83325 16.06 5.93075 20.1667 10.9908 20.1667C16.0599 20.1667 20.1666 16.06 20.1666 11C20.1666 5.93999 16.0599 1.83333 10.9908 1.83333ZM17.3433 7.33333H14.6391C14.3458 6.18749 13.9241 5.08749 13.3741 4.06999C15.0608 4.64749 16.4633 5.82083 17.3433 7.33333ZM10.9999 3.70333C11.7608 4.80333 12.3566 6.02249 12.7508 7.33333H9.24908C9.64325 6.02249 10.2391 4.80333 10.9999 3.70333ZM3.90492 12.8333C3.75825 12.2467 3.66659 11.6325 3.66659 11C3.66659 10.3675 3.75825 9.75333 3.90492 9.16666H7.00325C6.92992 9.77166 6.87492 10.3767 6.87492 11C6.87492 11.6233 6.92992 12.2283 7.00325 12.8333H3.90492ZM4.65658 14.6667H7.36075C7.65408 15.8125 8.07575 16.9125 8.62575 17.93C6.93909 17.3525 5.53659 16.1883 4.65658 14.6667ZM7.36075 7.33333H4.65658C5.53659 5.81166 6.93909 4.64749 8.62575 4.06999C8.07575 5.08749 7.65408 6.18749 7.36075 7.33333ZM10.9999 18.2967C10.2391 17.1967 9.64325 15.9775 9.24908 14.6667H12.7508C12.3566 15.9775 11.7608 17.1967 10.9999 18.2967ZM13.1449 12.8333H8.85492C8.77242 12.2283 8.70825 11.6233 8.70825 11C8.70825 10.3767 8.77242 9.76249 8.85492 9.16666H13.1449C13.2274 9.76249 13.2916 10.3767 13.2916 11C13.2916 11.6233 13.2274 12.2283 13.1449 12.8333ZM13.3741 17.93C13.9241 16.9125 14.3458 15.8125 14.6391 14.6667H17.3433C16.4633 16.1792 15.0608 17.3525 13.3741 17.93ZM14.9966 12.8333C15.0699 12.2283 15.1249 11.6233 15.1249 11C15.1249 10.3767 15.0699 9.77166 14.9966 9.16666H18.0949C18.2416 9.75333 18.3333 10.3675 18.3333 11C18.3333 11.6325 18.2416 12.2467 18.0949 12.8333H14.9966Z" fill="currentColor"/>
</svg>
