<svg viewBox="0 0 19 17" fill="none" xmlns="http://www.w3.org/2000/svg">
<path d="M1.09258 9.43606L1.15692 9.33508L5.03082 3.27432C5.0437 3.25425 5.06176 3.23802 5.0831 3.22736C5.10443 3.21669 5.12825 3.21198 5.15203 3.21372C5.17582 3.21545 5.1987 3.22358 5.21826 3.23723C5.23781 3.25089 5.25332 3.26957 5.26315 3.2913C5.91039 4.74186 6.46887 6.54567 6.20735 7.66888C6.09565 8.13086 5.78976 8.75665 5.44544 9.33508C5.40076 9.41938 5.35191 9.50188 5.30008 9.58141C5.28794 9.59944 5.27151 9.61418 5.25228 9.62431C5.23305 9.63445 5.21161 9.63966 5.18988 9.63949H1.20576C1.09854 9.63949 1.03599 9.52333 1.09258 9.43606Z" fill="currentColor"/>
<path d="M18.361 10.5623V11.5213C18.361 11.5767 18.3273 11.6256 18.2785 11.647C17.9786 11.7757 16.9518 12.2469 16.525 12.8406C15.4355 14.3566 14.6033 16.525 12.7426 16.525H4.98044C2.22945 16.525 0 14.2881 0 11.5276V11.4391C0 11.3656 0.0595712 11.306 0.133142 11.306H4.46039C4.54587 11.306 4.60872 11.3855 4.60097 11.4698C4.57051 11.7559 4.62424 12.0446 4.75556 12.3005C4.88137 12.555 5.07585 12.7693 5.31702 12.9191C5.55818 13.0689 5.83643 13.1483 6.12033 13.1482H8.26251V11.4758H6.14476C6.11997 11.4755 6.09573 11.4684 6.07465 11.4554C6.05356 11.4423 6.03643 11.4238 6.0251 11.4017C6.01377 11.3797 6.00866 11.3549 6.01033 11.3302C6.01199 11.3055 6.02037 11.2817 6.03455 11.2613C6.05778 11.2262 6.0837 11.1898 6.1111 11.1481C6.38741 10.7504 6.64484 10.3399 6.88255 9.91799C7.07675 9.57844 7.26499 9.21565 7.4163 8.85167C7.44698 8.78584 7.47141 8.71853 7.49583 8.6527C7.53723 8.53654 7.58012 8.42782 7.6108 8.3191C7.64118 8.22736 7.66591 8.13086 7.69033 8.04061C7.76211 7.73143 7.79279 7.40409 7.79279 7.06454C7.79279 6.93139 7.78684 6.792 7.77433 6.65886C7.76837 6.5135 7.7499 6.36815 7.73143 6.2228C7.71723 6.09243 7.69735 5.96274 7.67186 5.8341C7.63997 5.63854 7.59922 5.44454 7.54974 5.25268L7.53276 5.17941C7.49583 5.04627 7.46545 4.91938 7.42256 4.78624C7.30414 4.3787 7.1683 3.97642 7.01539 3.58052C6.96178 3.42891 6.90072 3.28356 6.83966 3.13821C6.74941 2.91928 6.65737 2.72061 6.57337 2.53237C6.53048 2.44659 6.49384 2.36855 6.45721 2.28902C6.41635 2.19953 6.37394 2.11076 6.33002 2.02274C6.29935 1.95721 6.2642 1.89585 6.23977 1.83449L5.97796 1.35107C5.96976 1.33644 5.96605 1.31972 5.96732 1.303C5.96858 1.28627 5.97475 1.27029 5.98505 1.25706C5.99536 1.24383 6.00934 1.23394 6.02525 1.22862C6.04115 1.2233 6.05827 1.22279 6.07446 1.22716L7.71178 1.67097H7.71624C7.71922 1.67097 7.72101 1.67246 7.7222 1.67246L7.93815 1.73203L8.17524 1.79935L8.26251 1.82377V0.850676C8.26251 0.380957 8.639 0 9.10395 0C9.33658 0 9.54776 0.094718 9.69937 0.249305C9.85068 0.40419 9.94569 0.615072 9.94569 0.850973V2.29527L10.1199 2.34412C10.1342 2.34859 10.1477 2.35533 10.1599 2.36408C10.2027 2.39625 10.2641 2.44361 10.3418 2.50169C10.4032 2.55054 10.469 2.61041 10.5486 2.67147C10.7061 2.79865 10.8941 2.96217 11.1008 3.15042C11.1559 3.19807 11.2095 3.24692 11.2586 3.29577C11.5552 3.56868 11.8385 3.85565 12.1075 4.15568C12.1874 4.24593 12.2654 4.33767 12.3449 4.43418C12.4244 4.53217 12.5087 4.62838 12.582 4.72488C12.6785 4.85356 12.7825 4.9867 12.8727 5.1258C12.9156 5.19162 12.9645 5.25894 13.0059 5.32476C13.122 5.5005 13.2245 5.68278 13.3225 5.86477C13.3639 5.94907 13.4068 6.04081 13.4434 6.13106C13.5521 6.37441 13.6376 6.62252 13.6927 6.87004C13.7097 6.92365 13.7219 6.98173 13.7279 7.03386V7.04607C13.7463 7.11964 13.7526 7.19768 13.7585 7.27721C13.7839 7.53236 13.7695 7.78991 13.7156 8.04061C13.692 8.14894 13.6618 8.25577 13.6254 8.36051C13.5888 8.46476 13.5521 8.57317 13.5045 8.67564C13.4123 8.89245 13.3023 9.10126 13.1756 9.29994C13.1342 9.37321 13.0854 9.45125 13.0362 9.52482C12.9826 9.60286 12.9278 9.67643 12.8787 9.74821C12.8114 9.83995 12.7396 9.93646 12.666 10.0222C12.6005 10.1125 12.5329 10.2027 12.4596 10.2823C12.3613 10.3997 12.2603 10.5149 12.1567 10.6278C12.0953 10.6999 12.0295 10.7734 11.9622 10.8393C11.8966 10.9125 11.829 10.9784 11.768 11.0397C11.6655 11.1422 11.5797 11.2217 11.5079 11.2875L11.3397 11.4421C11.3146 11.4639 11.2826 11.4758 11.2494 11.4758H9.94539V13.1482H11.5857C11.9516 13.1481 12.3053 13.0172 12.5832 12.7792C12.6797 12.6952 13.1003 12.3309 13.5977 11.7817C13.6144 11.7631 13.6361 11.7498 13.6602 11.7435L18.1909 10.4336C18.2108 10.428 18.2317 10.4271 18.2519 10.431C18.2722 10.4348 18.2913 10.4433 18.3077 10.4558C18.3242 10.4682 18.3375 10.4843 18.3467 10.5028C18.3559 10.5213 18.3607 10.5416 18.3607 10.5623H18.361Z" fill="currentColor"/>
</svg>
