<svg viewBox="0 0 17 20" fill="none" xmlns="http://www.w3.org/2000/svg">
<path d="M5.06115 0C7.75638 0 10.4519 0 13.1471 0C13.8402 0.212308 14.0616 0.699074 14.0598 1.39737C14.0457 6.42877 14.0525 11.4599 14.052 16.4913C14.052 17.2964 13.6135 17.7349 12.8105 17.7349C8.95737 17.7351 5.10397 17.7351 1.25084 17.7349C0.43895 17.7349 0.000494442 17.2954 0.000494442 16.4772C-0.000288981 12.7476 -2.784e-05 9.01824 0.000494442 5.28863C0.000494442 5.21942 0.00623942 5.15022 0.0101565 5.063C0.112785 5.063 0.19635 5.063 0.279916 5.063C1.30176 5.06457 2.3236 5.06901 3.34545 5.06535C3.5259 5.06483 3.71261 5.0536 3.88549 5.00712C4.62165 4.80917 5.05827 4.23153 5.06115 3.4562C5.06532 2.30405 5.06141 1.15189 5.06115 0ZM7.25368 10.2722C6.06915 10.2722 4.88462 10.2722 3.70008 10.2722C3.58936 10.2722 3.47863 10.2686 3.36817 10.2746C3.14463 10.2871 2.94016 10.4548 2.88375 10.6653C2.8263 10.8791 2.9164 11.1204 3.12949 11.2288C3.24517 11.2876 3.38906 11.315 3.52015 11.3152C6.00648 11.3202 8.4928 11.3189 10.9791 11.3181C11.0569 11.3181 11.1361 11.316 11.2118 11.3004C11.475 11.2468 11.6474 11.0141 11.6283 10.7465C11.609 10.4707 11.3774 10.273 11.0614 10.2725C9.79198 10.2715 8.52283 10.2722 7.25368 10.2722ZM7.23331 8.4829C8.04677 8.4829 8.86022 8.48316 9.67368 8.4829C10.1552 8.4829 10.6368 8.48421 11.1183 8.48081C11.3533 8.47925 11.5118 8.34972 11.5978 8.14264C11.6766 7.95226 11.632 7.76999 11.4954 7.6167C11.358 7.46236 11.1739 7.44017 10.9786 7.44043C8.49254 7.44226 6.00648 7.44147 3.52068 7.44226C3.44938 7.44226 3.37705 7.44382 3.3068 7.45505C2.93206 7.51433 2.75031 7.93372 2.96183 8.24735C3.08248 8.42597 3.25457 8.48525 3.46505 8.48473C4.72114 8.48107 5.97723 8.4829 7.23331 8.4829ZM5.3168 13.9823C5.94772 13.9823 6.57838 13.9857 7.20929 13.981C7.57933 13.9781 7.81958 13.7015 7.76056 13.3613C7.71564 13.1017 7.48819 12.9351 7.16881 12.9348C5.93988 12.9338 4.7107 12.9338 3.4815 12.9348C3.1193 12.9351 2.8754 13.1432 2.87096 13.4498C2.86626 13.7676 3.11042 13.9815 3.48307 13.9823C4.09414 13.9833 4.70547 13.9823 5.3168 13.9823Z" fill="currentColor"/>
<path d="M3.22507 20C3.10077 19.9462 2.96863 19.9054 2.85399 19.8357C2.53305 19.6412 2.34868 19.3526 2.32701 18.9745C2.31578 18.7804 2.32492 18.5851 2.32492 18.361C2.41188 18.361 2.49362 18.361 2.57535 18.361C5.99891 18.361 9.42247 18.3608 12.8463 18.3613C13.5963 18.3613 14.1609 18.0492 14.5085 17.3747C14.6555 17.0895 14.6816 16.7798 14.6816 16.4641C14.6803 11.8234 14.6808 7.18264 14.6808 2.5419C14.6808 2.4586 14.6808 2.37504 14.6808 2.24264C15.0002 2.26901 15.3099 2.25569 15.5985 2.32725C16.0881 2.44868 16.3673 2.88478 16.3712 3.45929C16.3761 4.18161 16.3725 4.90419 16.3725 5.62676C16.3725 9.99408 16.3714 14.3614 16.3743 18.729C16.3746 19.1479 16.2803 19.5215 15.922 19.7733C15.7815 19.8717 15.6097 19.9255 15.4522 19.9997C11.3763 20 7.3007 20 3.22507 20Z" fill="currentColor"/>
<path d="M4.43559 2.01231C4.43559 2.48733 4.43742 2.96234 4.43507 3.4371C4.43194 4.04242 4.06033 4.43257 3.45422 4.43857C2.4914 4.4485 1.52831 4.44171 0.565482 4.44119C0.334111 4.44119 0.140867 4.37068 0.0507738 4.13487C-0.0361862 3.90741 0.059913 3.73428 0.218164 3.57629C1.33715 2.45939 2.4551 1.34144 3.57174 0.222193C3.73678 0.0568908 3.92402 -0.0347694 4.1499 0.0613305C4.37474 0.156908 4.44186 0.350413 4.43794 0.587268C4.43011 1.06228 4.43559 1.5373 4.43559 2.01231Z" fill="currentColor"/>
</svg>
