<svg viewBox="0 0 18 18" fill="none" xmlns="http://www.w3.org/2000/svg">
<path d="M7.8401 0C8.61347 0 9.38683 0 10.1602 0C10.4234 0.0922761 10.5557 0.286496 10.6071 0.553657C10.6479 0.765892 10.6998 0.97637 10.7604 1.18377C10.7762 1.23826 10.8347 1.30768 10.8861 1.32087C11.6687 1.51728 12.4034 1.82575 13.0972 2.23704C13.1438 2.26472 13.2334 2.26121 13.2826 2.2344C13.4883 2.12367 13.6851 1.99624 13.8873 1.87892C14.1834 1.70711 14.404 1.73347 14.6474 1.97471C15.1088 2.43214 15.568 2.89176 16.0259 3.3527C16.2684 3.59701 16.2952 3.81628 16.1234 4.11244C16.0061 4.31457 15.8787 4.51142 15.7679 4.71707C15.7411 4.76672 15.7367 4.85592 15.764 4.90206C16.1753 5.59589 16.4837 6.33058 16.6806 7.11317C16.6933 7.16458 16.7619 7.2239 16.8159 7.23972C17.0233 7.30036 17.2338 7.35265 17.4456 7.39352C17.7128 7.44493 17.9083 7.57543 18.0001 7.83952C18.0001 8.61288 18.0001 9.38624 18.0001 10.1596C17.9092 10.4145 17.7246 10.5489 17.4623 10.5999C17.2444 10.6421 17.0286 10.6966 16.8159 10.7594C16.7619 10.7752 16.6933 10.8345 16.6806 10.8864C16.4837 11.669 16.1753 12.4037 15.764 13.0971C15.7367 13.1432 15.7411 13.2328 15.7679 13.2821C15.8818 13.4925 16.0131 13.6942 16.1318 13.9021C16.2922 14.1828 16.2658 14.403 16.0382 14.6337C15.5733 15.1038 15.1058 15.5718 14.6351 16.0367C14.4058 16.2635 14.1825 16.2889 13.9026 16.129C13.6996 16.013 13.5041 15.8834 13.2971 15.7753C13.2396 15.7449 13.1368 15.741 13.0827 15.7726C12.3972 16.1743 11.6744 16.4796 10.9032 16.6747C10.8439 16.6897 10.7771 16.7701 10.7578 16.8334C10.6958 17.0342 10.6471 17.2394 10.6071 17.4459C10.5557 17.7131 10.4234 17.9068 10.1602 17.9996C9.38683 17.9996 8.61347 17.9996 7.8401 17.9996C7.57778 17.9051 7.44595 17.7109 7.39498 17.4433C7.35587 17.2367 7.30622 17.0311 7.24383 16.8303C7.22449 16.7675 7.15726 16.6958 7.09575 16.6743C6.88703 16.5996 6.66688 16.5565 6.4586 16.4814C6.17562 16.3795 5.89923 16.2591 5.61142 16.1431C5.64086 16.1035 5.64965 16.0877 5.66151 16.0754C6.44014 15.2963 7.21746 14.5164 8.00093 13.7426C8.04839 13.6955 8.14857 13.6692 8.21668 13.6802C8.68993 13.7571 9.16097 13.7408 9.63378 13.6788C10.8026 13.5259 11.7904 13.0215 12.5616 12.1317C13.5208 11.0244 13.8983 9.72854 13.6759 8.28113C13.4316 6.69222 12.5813 5.50493 11.1511 4.77815C9.70847 4.04521 8.23426 4.06323 6.79914 4.80803C5.57978 5.44078 4.79192 6.44571 4.42457 7.7758C4.24353 8.43096 4.23342 9.09315 4.32966 9.76018C4.34635 9.8753 4.31691 9.95484 4.23343 10.0379C3.49038 10.7774 2.75173 11.5222 2.01177 12.2653C1.97134 12.3061 1.92828 12.3444 1.87819 12.3918C1.85051 12.3386 1.82414 12.2995 1.80876 12.2565C1.65189 11.8228 1.48887 11.3908 1.34694 10.9523C1.30519 10.8236 1.25291 10.7581 1.12065 10.7344C0.936534 10.7014 0.757251 10.6438 0.573578 10.6096C0.302022 10.5586 0.0981351 10.4294 0.00146484 10.1596C0.00146484 9.38624 0.00146484 8.61288 0.00146484 7.83952C0.0981351 7.57016 0.301582 7.44141 0.572698 7.38956C0.779221 7.35002 0.983989 7.29948 1.18568 7.24016C1.24017 7.2239 1.31003 7.1659 1.32277 7.11493C1.51919 6.33234 1.82766 5.59765 2.23894 4.90382C2.26663 4.85724 2.26311 4.7676 2.23674 4.71839C2.12601 4.51274 1.99902 4.31589 1.88126 4.11376C1.70945 3.81848 1.73582 3.59657 1.97706 3.35358C2.43448 2.8922 2.89411 2.43302 3.35505 1.97559C3.59892 1.73347 3.8195 1.70667 4.11478 1.87804C4.31691 1.99536 4.51377 2.12279 4.71941 2.23352C4.76906 2.26033 4.85871 2.26472 4.90485 2.23748C5.59868 1.82619 6.33293 1.51772 7.11552 1.32087C7.16693 1.30812 7.22625 1.23958 7.24207 1.18509C7.30314 0.978127 7.35587 0.76765 7.3963 0.555415C7.44595 0.287814 7.57822 0.0944732 7.8401 0Z" fill="currentColor"/>
<path d="M1.75764 18C1.64032 18 1.52344 18 1.40611 18C1.37931 17.9903 1.35338 17.9767 1.3257 17.9719C0.931546 17.9007 0.606825 17.7148 0.350648 17.4029C0.155111 17.1651 0.0694268 16.8839 0 16.5935C0 16.4761 0 16.3593 0 16.2419C0.0742603 15.7331 0.380965 15.3701 0.732053 15.0217C2.29504 13.4701 3.84835 11.9093 5.40826 10.3547C5.4935 10.2699 5.5124 10.1992 5.4834 10.081C5.41529 9.80369 5.33531 9.52203 5.32301 9.23949C5.26237 7.86106 5.78308 6.7454 6.92071 5.95446C7.84215 5.31336 8.86905 5.1688 9.95439 5.432C10.1978 5.49088 10.3762 5.69609 10.3464 5.9259C10.327 6.07618 10.2488 6.24227 10.146 6.35345C9.74831 6.78275 9.31505 7.17954 8.92398 7.61411C8.60673 7.96696 8.62342 8.52984 8.91563 8.89587C9.32736 9.41218 10.0273 9.44865 10.5195 8.97057C10.9101 8.59092 11.2867 8.19721 11.6778 7.81844C12.0025 7.50382 12.4762 7.64092 12.5777 8.07549C12.699 8.59356 12.7258 9.11514 12.6295 9.64287C12.1862 12.0684 9.91924 13.123 7.92124 12.5232C7.80568 12.4885 7.73405 12.5043 7.64749 12.5909C6.09769 14.1468 4.54043 15.6957 2.9937 17.2552C2.63998 17.6116 2.26867 17.9156 1.75764 18Z" fill="currentColor"/>
</svg>
