<svg viewBox="0 0 20 20" fill="none" xmlns="http://www.w3.org/2000/svg">
<path d="M19 5.65738C18.405 5.93846 17.771 6.12477 17.11 6.21523C17.79 5.778 18.309 5.09092 18.553 4.26277C17.919 4.66985 17.219 4.95738 16.473 5.11785C15.871 4.42754 15.013 4 14.077 4C12.261 4 10.799 5.58738 10.799 7.53339C10.799 7.81339 10.821 8.08262 10.875 8.33892C8.148 8.19569 5.735 6.78815 4.114 4.644C3.831 5.17277 3.665 5.778 3.665 6.42954C3.665 7.65292 4.25 8.73738 5.122 9.36523C4.595 9.35446 4.078 9.18969 3.64 8.93015C3.64 8.94092 3.64 8.95492 3.64 8.96892C3.64 10.6855 4.777 12.1114 6.268 12.4398C6.001 12.5185 5.71 12.5562 5.408 12.5562C5.198 12.5562 4.986 12.5432 4.787 12.4958C5.212 13.8948 6.418 14.9232 7.852 14.9566C6.736 15.8968 5.319 16.4632 3.785 16.4632C3.516 16.4632 3.258 16.4503 3 16.4148C4.453 17.4238 6.175 18 8.032 18C14.068 18 17.368 12.6154 17.368 7.948C17.368 7.79185 17.363 7.64108 17.356 7.49138C18.007 6.99385 18.554 6.37246 19 5.65738Z" fill="currentColor"/>
</svg>
