<svg viewBox="0 0 17 20" fill="none" xmlns="http://www.w3.org/2000/svg">
<path d="M2.00523 0C6.22401 0 10.4428 0 14.6616 0C14.8595 0.0588618 15.0647 0.101576 15.2549 0.179712C16.143 0.545905 16.6629 1.36476 16.6629 2.38781C16.6634 7.46243 16.6634 12.5376 16.6629 17.6122C16.6629 17.6705 16.6623 17.7294 16.6603 17.7877C16.628 18.767 15.9737 19.6187 15.0345 19.9C14.9111 19.937 14.7855 19.9667 14.6605 20C10.4417 20 6.22296 20 2.00419 20C1.79426 19.9354 1.57288 19.8958 1.3765 19.8021C0.46649 19.3692 0.00288834 18.6431 0.00288834 17.6315C0.00184653 13.2199 0.00236693 8.80896 0.00236693 4.39745C0.00236693 3.6885 -0.0044086 2.97903 0.00496762 2.27009C0.0153856 1.47102 0.355014 0.828754 1.02177 0.39901C1.31503 0.211486 1.6755 0.129704 2.00523 0ZM4.22635 14.169C5.40671 15.1192 7.34343 15.3572 8.92905 14.33C10.5454 13.283 11.2366 11.2603 10.5959 9.45071C10.0901 8.02292 8.41023 6.65295 7.28821 6.76807C7.28821 6.83683 7.28821 6.90715 7.28821 6.97747C7.28821 8.20784 7.28144 9.43769 7.2929 10.6681C7.2955 10.9723 7.19653 11.1983 6.9814 11.4093C6.09951 12.2766 5.22909 13.1548 4.35501 14.0294C4.31074 14.0742 4.26959 14.1222 4.22635 14.169ZM6.03857 6.71858C4.42326 7.05613 3.2929 7.93124 2.74387 9.46113C2.25579 10.8212 2.48811 12.0984 3.3153 13.2887C3.35697 13.2538 3.3778 13.2387 3.39603 13.221C4.24719 12.3704 5.0999 11.5208 5.94585 10.6644C6.00419 10.6055 6.03492 10.4936 6.03544 10.406C6.04117 9.24808 6.03909 8.09012 6.03909 6.93163C6.03857 6.87485 6.03857 6.81755 6.03857 6.71858ZM8.3123 17.7054C9.99741 17.7054 11.6831 17.7054 13.3682 17.7054C13.4333 17.7054 13.4984 17.707 13.5635 17.7033C13.8865 17.6867 14.1365 17.4512 14.1594 17.1429C14.1849 16.8043 13.9761 16.5287 13.6427 16.4709C13.5536 16.4553 13.4614 16.4558 13.3708 16.4558C10.013 16.4553 6.65584 16.4553 3.29811 16.4558C3.20747 16.4558 3.11475 16.4553 3.02619 16.4704C2.69803 16.5266 2.49071 16.7886 2.50581 17.1205C2.52144 17.4726 2.79231 17.7044 3.19809 17.7049C4.903 17.706 6.60739 17.7049 8.3123 17.7054ZM12.8994 10.2034C13.1207 10.2034 13.3421 10.2097 13.5625 10.2018C13.8854 10.1904 14.1355 9.95078 14.1589 9.64344C14.1849 9.30486 13.9787 8.99805 13.6437 8.97721C13.1588 8.94648 12.6686 8.94804 12.1836 8.97825C11.8685 8.99805 11.6492 9.30486 11.6659 9.60958C11.6841 9.93775 11.9388 10.1904 12.2748 10.2024C12.4826 10.2097 12.691 10.2034 12.8994 10.2034ZM12.9139 12.7037C13.1286 12.7037 13.3432 12.7095 13.5578 12.7022C13.8823 12.6912 14.1334 12.4553 14.1589 12.1485C14.187 11.8099 13.9823 11.5005 13.6484 11.4786C13.1635 11.4468 12.6733 11.4478 12.1883 11.4775C11.8648 11.4973 11.6414 11.8146 11.6674 12.1245C11.6945 12.4469 11.9435 12.6902 12.2706 12.7022C12.4847 12.71 12.6993 12.7032 12.9139 12.7037ZM12.9228 6.67118C12.7082 6.67118 12.4936 6.66545 12.279 6.67222C11.9404 6.68316 11.6872 6.93007 11.6664 7.2598C11.6466 7.56921 11.8753 7.88071 12.1987 7.89999C12.678 7.92812 13.1608 7.92916 13.6396 7.89842C13.9766 7.87655 14.1834 7.57494 14.1594 7.23532C14.1375 6.92746 13.888 6.68524 13.5666 6.67326C13.3525 6.66545 13.1374 6.6717 12.9228 6.67118ZM12.9077 14.9999C13.1093 14.9999 13.3109 15.0025 13.513 14.9993C13.8938 14.9936 14.1651 14.729 14.162 14.3685C14.1594 14.0185 13.8896 13.7544 13.5203 13.7507C13.1171 13.7466 12.7134 13.7466 12.3102 13.7507C11.9425 13.7549 11.669 14.0221 11.6659 14.3701C11.6627 14.7144 11.9404 14.9905 12.3029 14.9983C12.504 15.0035 12.7061 14.9999 12.9077 14.9999Z" fill="currentColor"/>
</svg>
