<svg width="150" height="43" viewBox="0 0 150 43" fill="none" xmlns="http://www.w3.org/2000/svg">
<path d="M1 21.8989L2.7575 17.2619C4.52528 12.5379 8.09167 3.39466 11.5861 5.63694C15.0908 7.96629 18.207 13.3462 21.8043 14.5C25.2987 15.7409 26.6341 22.0885 30.2313 21C33.7155 19.9115 38.5874 29.276 42.0818 34C45.6482 38.6369 50.3333 28.8652 53.8278 31.1945C57.3839 33.4368 60.9194 38.2261 64.4139 40.4684C67.9494 42.7978 71.5056 42.7978 75 38.1608C78.5253 33.4368 82.0394 35.8968 85.5338 35.8315C89.0385 35.8968 90.3636 26.6053 93.9608 29C97.4553 31.3947 102.478 20.7423 106.075 18.5C109.559 16.1706 113.747 28.8652 117.242 25.382C120.808 21.8989 124.333 14.9326 127.828 12.6032C131.384 10.361 134.182 24.5885 137.676 23.5C141.212 22.4115 145.506 5.57163 147.253 3.32935L149 1" stroke="#5858ED" stroke-width="2" stroke-linecap="round"/>
<line x1="1" y1="23.5" x2="149" y2="23.5" stroke="#B8B8FF" stroke-dasharray="2 2"/>
</svg>
