<svg width="150" height="43" viewBox="0 0 150 43" fill="none" xmlns="http://www.w3.org/2000/svg">
<path d="M1 21.1011L2.7575 25.7381C4.52528 30.4621 8.09167 39.6053 11.5861 37.3631C15.0908 35.0337 18.207 29.6538 21.8043 28.5C25.2987 27.2591 26.6341 20.9115 30.2313 22C33.7155 23.0885 38.5874 13.724 42.0818 9C45.6482 4.36306 50.3333 14.1348 53.8278 11.8055C57.3839 9.5632 60.9194 4.77387 64.4139 2.5316C67.9494 0.202242 71.5056 0.202243 75 4.83918C78.5253 9.5632 82.0394 7.10323 85.5338 7.16854C89.0385 7.10323 90.3636 16.3947 93.9608 14C97.4553 11.6053 102.478 22.2577 106.075 24.5C109.559 26.8294 113.747 14.1348 117.242 17.618C120.808 21.1011 124.333 28.0674 127.828 30.3968C131.384 32.639 134.182 18.4115 137.676 19.5C141.212 20.5885 145.506 37.4284 147.253 39.6706L149 42" stroke="#F9727A" stroke-width="2" stroke-linecap="round"/>
<line x1="1" y1="23.5" x2="149" y2="23.5" stroke="#FFDDE0" stroke-dasharray="2 2"/>
</svg>
