<svg width="168" height="40" viewBox="0 0 168 40" fill="none" xmlns="http://www.w3.org/2000/svg">
<circle cx="20" cy="20" r="20" fill="#5858ED"/>
<path d="M73.4 25H70.92L69.52 21.36H64.08L62.68 25H60.2L66.08 10.22H67.58L73.4 25ZM68.82 19.24L66.82 13.88L64.82 19.24H68.82Z" fill="white"/>
<path d="M79.9174 25.24C78.2375 25.24 76.8708 24.7133 75.8175 23.66C74.7508 22.5933 74.2175 21.2467 74.2175 19.62C74.2175 17.98 74.7575 16.6267 75.8375 15.56C76.9308 14.4933 78.3174 13.96 79.9974 13.96C81.0774 13.96 82.0641 14.22 82.9575 14.74C83.8641 15.26 84.5308 15.96 84.9575 16.84L83.1375 17.86C82.8041 17.2867 82.3575 16.8333 81.7975 16.5C81.2508 16.1533 80.6575 15.98 80.0175 15.98C78.9908 15.98 78.1375 16.3267 77.4575 17.02C76.7775 17.7267 76.4375 18.5933 76.4375 19.62C76.4375 20.62 76.7708 21.4733 77.4375 22.18C78.0908 22.8733 78.9241 23.22 79.9375 23.22C80.5775 23.22 81.1908 23.0467 81.7775 22.7C82.3641 22.3533 82.7975 21.9133 83.0775 21.38L84.8975 22.44C84.4575 23.28 83.7841 23.96 82.8775 24.48C81.9841 24.9867 80.9975 25.24 79.9174 25.24Z" fill="white"/>
<path d="M96.9901 19.4C96.9901 19.7467 96.9634 20.1 96.9101 20.46H88.4901C88.6501 21.3267 89.0301 22.0133 89.6301 22.52C90.2434 23.0267 91.0568 23.28 92.0701 23.28C92.6834 23.28 93.3234 23.1733 93.9901 22.96C94.6701 22.7467 95.2501 22.4667 95.7301 22.12L96.6501 23.74C95.3034 24.74 93.7501 25.24 91.9901 25.24C90.0968 25.24 88.6568 24.6867 87.6701 23.58C86.6968 22.4733 86.2101 21.14 86.2101 19.58C86.2101 17.9533 86.7168 16.6133 87.7301 15.56C88.7568 14.4933 90.0834 13.96 91.7101 13.96C93.2701 13.96 94.5368 14.4467 95.5101 15.42C96.4968 16.4067 96.9901 17.7333 96.9901 19.4ZM91.7101 15.86C90.8834 15.86 90.1768 16.12 89.5901 16.64C89.0168 17.1467 88.6501 17.82 88.4901 18.66H94.7701C94.6768 17.82 94.3434 17.1467 93.7701 16.64C93.2101 16.12 92.5234 15.86 91.7101 15.86Z" fill="white"/>
<path d="M106.756 25H104.476V10.22H105.736L111.936 19.28L118.096 10.22H119.396V25H117.076V15.54L112.256 22.58H111.576L106.756 15.54V25Z" fill="white"/>
<path d="M123.732 12.8C123.306 12.8 122.946 12.66 122.652 12.38C122.359 12.0867 122.212 11.7267 122.212 11.3C122.212 10.8867 122.359 10.54 122.652 10.26C122.946 9.98 123.306 9.84 123.732 9.84C124.146 9.84 124.492 9.98 124.772 10.26C125.052 10.54 125.192 10.8867 125.192 11.3C125.192 11.7267 125.052 12.0867 124.772 12.38C124.492 12.66 124.146 12.8 123.732 12.8ZM124.792 14.22V25H122.592V14.22H124.792Z" fill="white"/>
<path d="M129.831 25H127.631V14.22H129.791V15.74C130.111 15.18 130.571 14.74 131.171 14.42C131.771 14.1 132.451 13.94 133.211 13.94C134.398 13.94 135.398 14.3267 136.211 15.1C137.038 15.8867 137.451 17 137.451 18.44V25H135.231V19.06C135.231 18.0867 134.998 17.3333 134.531 16.8C134.064 16.2533 133.438 15.98 132.651 15.98C131.824 15.98 131.144 16.2733 130.611 16.86C130.091 17.4333 129.831 18.18 129.831 19.1V25Z" fill="white"/>
<path d="M150.31 19.4C150.31 19.7467 150.284 20.1 150.23 20.46H141.81C141.97 21.3267 142.35 22.0133 142.95 22.52C143.564 23.0267 144.377 23.28 145.39 23.28C146.004 23.28 146.644 23.1733 147.31 22.96C147.99 22.7467 148.57 22.4667 149.05 22.12L149.97 23.74C148.624 24.74 147.07 25.24 145.31 25.24C143.417 25.24 141.977 24.6867 140.99 23.58C140.017 22.4733 139.53 21.14 139.53 19.58C139.53 17.9533 140.037 16.6133 141.05 15.56C142.077 14.4933 143.404 13.96 145.03 13.96C146.59 13.96 147.857 14.4467 148.83 15.42C149.817 16.4067 150.31 17.7333 150.31 19.4ZM145.03 15.86C144.204 15.86 143.497 16.12 142.91 16.64C142.337 17.1467 141.97 17.82 141.81 18.66H148.09C147.997 17.82 147.664 17.1467 147.09 16.64C146.53 16.12 145.844 15.86 145.03 15.86Z" fill="white"/>
<path d="M154.675 25H152.475V14.22H154.575V15.76C155.215 14.5467 156.235 13.94 157.635 13.94C158.088 13.94 158.515 14 158.915 14.12L158.715 16.26C158.355 16.1267 157.961 16.06 157.535 16.06C156.668 16.06 155.975 16.3533 155.455 16.94C154.935 17.5267 154.675 18.3733 154.675 19.48V25Z" fill="white"/>
<path d="M163.507 25.26C162.653 25.26 161.86 25.0667 161.127 24.68C160.393 24.2933 159.807 23.7333 159.367 23L160.787 21.72C161.107 22.24 161.513 22.6467 162.007 22.94C162.513 23.22 163.027 23.36 163.547 23.36C164.067 23.36 164.493 23.2333 164.827 22.98C165.16 22.7133 165.327 22.3933 165.327 22.02C165.327 21.4867 165.02 21.0733 164.407 20.78C164.247 20.6867 163.813 20.5067 163.107 20.24C162.387 19.9333 161.933 19.7267 161.747 19.62C160.6 19.02 160.027 18.1333 160.027 16.96C160.027 16.0667 160.36 15.3267 161.027 14.74C161.72 14.1533 162.613 13.86 163.707 13.86C165.24 13.86 166.42 14.4133 167.247 15.52L165.967 16.88C165.327 16.0933 164.54 15.7 163.607 15.7C163.167 15.7 162.813 15.8133 162.547 16.04C162.293 16.2667 162.167 16.5467 162.167 16.88C162.167 17.4133 162.467 17.8067 163.067 18.06L164.167 18.52C164.873 18.8133 165.38 19.04 165.687 19.2C166.913 19.84 167.527 20.7467 167.527 21.92C167.527 22.8667 167.153 23.66 166.407 24.3C165.66 24.94 164.693 25.26 163.507 25.26Z" fill="white"/>
</svg>
